# xmcd CD database file
#
# Track frame offsets:
#	150
#	22929
#	44766
#	67075
#	89937
#	111435
#	135090
#	158030
#	179187
#	197764
#
# Disc length: 2948 seconds
#
# Revision: 0
# Processed by: cddbd v1.4PL0 Copyright (c) Steve Scherf et al.
# Submitted via: NeoAudio 1.5.7
#
DISCID=940b820a
DTITLE=Eddie Santiago - Exitos y Recuerdos
DYEAR=1900
DGENRE=Salsa
TTITLE0=Aquel Viejo Motel
TTITLE1=Desnúdate Mujer
TTITLE2=Lluvia
TTITLE3=Devórame Otra Vez
TTITLE4=Mía
TTITLE5=Que Locura Fue
TTITLE6=Tú me Quemas
TTITLE7=Jamás
TTITLE8=No Te Quites la Ropa
TTITLE9=Todo Empezo
EXTD=
EXTT0=
EXTT1=
EXTT2=
EXTT3=
EXTT4=
EXTT5=
EXTT6=
EXTT7=
EXTT8=
EXTT9=
PLAYORDER=
